<svg xmlns="http://www.w3.org/2000/svg" viewBox="0 0 100 100">
  <!-- Cat face background -->
  <circle cx="50" cy="50" r="45" fill="#FF9E80"/>

  <!-- Left ear -->
  <path d="M 20 25 L 15 5 L 35 20 Z" fill="#FF9E80"/>
  <path d="M 20 25 L 18 10 L 32 22 Z" fill="#FFB399"/>

  <!-- Right ear -->
  <path d="M 80 25 L 85 5 L 65 20 Z" fill="#FF9E80"/>
  <path d="M 80 25 L 82 10 L 68 22 Z" fill="#FFB399"/>

  <!-- Left eye -->
  <ellipse cx="35" cy="45" rx="8" ry="12" fill="#2C3E50"/>
  <ellipse cx="37" cy="42" rx="3" ry="4" fill="white"/>

  <!-- Right eye -->
  <ellipse cx="65" cy="45" rx="8" ry="12" fill="#2C3E50"/>
  <ellipse cx="67" cy="42" rx="3" ry="4" fill="white"/>

  <!-- Nose -->
  <path d="M 50 55 L 45 60 L 50 62 L 55 60 Z" fill="#FF6B6B"/>

  <!-- Mouth -->
  <path d="M 50 62 Q 40 68 35 65" stroke="#2C3E50" stroke-width="2" fill="none" stroke-linecap="round"/>
  <path d="M 50 62 Q 60 68 65 65" stroke="#2C3E50" stroke-width="2" fill="none" stroke-linecap="round"/>

  <!-- Whiskers left -->
  <line x1="10" y1="50" x2="30" y2="48" stroke="#2C3E50" stroke-width="1.5"/>
  <line x1="10" y1="55" x2="30" y2="55" stroke="#2C3E50" stroke-width="1.5"/>
  <line x1="10" y1="60" x2="30" y2="62" stroke="#2C3E50" stroke-width="1.5"/>

  <!-- Whiskers right -->
  <line x1="90" y1="50" x2="70" y2="48" stroke="#2C3E50" stroke-width="1.5"/>
  <line x1="90" y1="55" x2="70" y2="55" stroke="#2C3E50" stroke-width="1.5"/>
  <line x1="90" y1="60" x2="70" y2="62" stroke="#2C3E50" stroke-width="1.5"/>
</svg>
